<svg version="1" xmlns="http://www.w3.org/2000/svg" width="346.667" height="346.667" viewBox="0 0 260.000000 260.000000"><path d="M71 39.4c-17.8 4-26 16.6-26 40.3V86H26v16h19v105h20V102h33V86H64.7l.5-9.8c.9-18.2 3.5-20.5 24.1-21l13.7-.4V38l-13.2.1c-7.3 0-15.8.6-18.8 1.3zM165.5 84.4c-8.2 2-14.3 5.7-20.6 12.4l-5.9 6.3V86h-20v167h20v-63.1l5.9 6.4c10.9 11.6 26.4 16.1 43.3 12.6 17.5-3.7 32.8-20.8 37.5-42.1 2.2-9.8 2.2-30.8 0-40.6-4.7-21.3-20-38.4-37.5-42.1-6.7-1.4-16.3-1.3-22.7.3zm20.7 18.3c13.1 5.8 20.8 22.1 20.8 43.8 0 27.6-11.6 44.7-31.5 46.3-16.2 1.3-28.6-8.6-34.1-27.3-1.3-4.4-1.8-9.5-1.8-19 0-14.2 1.4-21 6.2-29.8 3.4-6.4 11.2-13.3 17.1-15.2 6.2-2 17.3-1.4 23.3 1.2z"/></svg>